<svg clip-rule="evenodd" fill-rule="evenodd" stroke-linejoin="round" stroke-miterlimit="2" viewBox="0 0 772 772" xmlns="http://www.w3.org/2000/svg" xmlns:xlink="http://www.w3.org/1999/xlink"><radialGradient id="a" cx="0" cy="0" gradientTransform="matrix(1574.88 -779.72 -779.72 -1574.88 0 772)" gradientUnits="userSpaceOnUse" r="1"><stop offset="0" stop-color="#3023ae"/><stop offset="1" stop-color="#c86dd7"/></radialGradient><path d="m0 0h1544v772h-1544z" fill="url(#a)" transform="matrix(.5 -0 0 -1 0 772)"/><g fill-rule="nonzero"><path d="m21 3c.552 0 1 .448 1 1v16c0 .552-.448 1-1 1h-18c-.552 0-1-.448-1-1v-16c0-.552.448-1 1-1zm-1 2h-16v14h16zm-2 2v2h-12v-2z" fill="#ff9414" transform="matrix(13.6449766885 -2.1330512873 1.7590003648 11.252148995 201.15454265 472.6154452)"/><path d="m15.387 13.498 2.553 7.014-4.698 1.71-2.553-7.014-3.899 2.445 1.619-16.02 11.537 11.232zm-.01 5.818-2.715-7.459 2.959-.411-5.639-5.49-.791 7.83 2.531-1.587 2.715 7.459z" fill="#fff" transform="matrix(4.88050574158 -1.67719573047 1.91061891276 5.19404609001 299.133719394 559.868140286)"/><g fill="#ff9414" transform="translate(-342.234 -134.633)"><path d="m524.777 254.887c-2.4-1.95-4.8-3.393-7.2-4.331-2.4-.937-4.725-1.406-6.975-1.406-2.85 0-5.175.675-6.975 2.025s-2.7 3.112-2.7 5.287c0 1.5.45 2.738 1.35 3.713s2.082 1.819 3.544 2.531c1.463.713 3.113 1.331 4.95 1.856 1.838.525 3.656 1.088 5.456 1.688 7.2 2.4 12.469 5.606 15.807 9.619 3.337 4.012 5.006 9.243 5.006 15.693 0 4.35-.731 8.288-2.194 11.813-1.462 3.525-3.6 6.544-6.412 9.056-2.813 2.513-6.263 4.463-10.35 5.85-4.088 1.388-8.719 2.081-13.894 2.081-10.725 0-20.663-3.187-29.813-9.562l9.45-17.775c3.3 2.925 6.563 5.1 9.788 6.525s6.412 2.137 9.562 2.137c3.6 0 6.282-.825 8.044-2.475 1.763-1.65 2.644-3.525 2.644-5.625 0-1.275-.225-2.381-.675-3.318-.45-.938-1.2-1.8-2.25-2.588-1.05-.787-2.419-1.519-4.106-2.194-1.688-.675-3.732-1.425-6.132-2.25-2.85-.9-5.643-1.893-8.381-2.981-2.737-1.087-5.175-2.531-7.312-4.331-2.138-1.8-3.863-4.069-5.175-6.806-1.313-2.738-1.969-6.207-1.969-10.407s.694-8.006 2.081-11.418c1.388-3.413 3.338-6.338 5.85-8.775 2.513-2.438 5.588-4.332 9.225-5.682 3.638-1.35 7.706-2.025 12.206-2.025 4.2 0 8.588.582 13.163 1.744 4.575 1.163 8.962 2.869 13.162 5.119z"/><path d="m548.965 260.287h20.362v7.313c2.775-3.375 5.588-5.644 8.438-6.806 2.85-1.163 6.187-1.744 10.012-1.744 4.05 0 7.519.656 10.407 1.969 2.887 1.312 5.343 3.168 7.368 5.568 1.65 1.95 2.775 4.125 3.375 6.525s.9 5.138.9 8.213v36.675h-20.362v-29.138c0-2.85-.206-5.156-.619-6.918-.412-1.763-1.144-3.169-2.194-4.219-.9-.9-1.912-1.538-3.037-1.913s-2.325-.562-3.6-.562c-3.45 0-6.094 1.031-7.931 3.094-1.838 2.062-2.757 5.006-2.757 8.831v30.825h-20.362z"/><path d="m644.027 260.287v57.713h-20.362v-57.713zm-21.712-22.162c0-1.575.3-3.056.9-4.444.6-1.387 1.425-2.606 2.475-3.656s2.269-1.875 3.656-2.475c1.388-.6 2.869-.9 4.444-.9s3.056.3 4.444.9c1.387.6 2.606 1.425 3.656 2.475s1.875 2.269 2.475 3.656c.6 1.388.9 2.869.9 4.444s-.3 3.056-.9 4.444c-.6 1.387-1.425 2.606-2.475 3.656s-2.269 1.875-3.656 2.475c-1.388.6-2.869.9-4.444.9s-3.056-.3-4.444-.9c-1.387-.6-2.606-1.425-3.656-2.475s-1.875-2.269-2.475-3.656c-.6-1.388-.9-2.869-.9-4.444z"/><path d="m703.99 289.312c0-1.8-.319-3.506-.956-5.118-.638-1.613-1.556-3.019-2.757-4.219-1.199-1.2-2.606-2.156-4.218-2.869-1.613-.712-3.356-1.069-5.231-1.069-1.801 0-3.488.338-5.063 1.013s-2.944 1.612-4.106 2.812c-1.163 1.2-2.1 2.607-2.813 4.219-.712 1.613-1.069 3.319-1.069 5.119s.338 3.487 1.013 5.062 1.612 2.944 2.813 4.107c1.199 1.162 2.606 2.1 4.218 2.812 1.613.713 3.319 1.069 5.119 1.069s3.487-.338 5.062-1.013c1.576-.675 2.944-1.612 4.107-2.812 1.162-1.2 2.1-2.588 2.812-4.163.713-1.575 1.069-3.225 1.069-4.95zm-25.65 57.488h-20.362v-86.513h20.362v6.413c4.35-5.475 10.275-8.213 17.775-8.213 4.125 0 7.969.807 11.531 2.419 3.563 1.613 6.657 3.806 9.282 6.581 2.624 2.775 4.668 6.038 6.131 9.788 1.462 3.75 2.193 7.762 2.193 12.037s-.731 8.25-2.193 11.925c-1.463 3.675-3.488 6.9-6.075 9.675-2.588 2.775-5.644 4.95-9.169 6.525s-7.35 2.363-11.475 2.363c-7.2 0-13.2-2.475-18-7.425z"/><path d="m782.853 289.312c0-1.8-.319-3.506-.957-5.118-.637-1.613-1.556-3.019-2.756-4.219s-2.606-2.156-4.219-2.869c-1.612-.712-3.356-1.069-5.231-1.069-1.8 0-3.488.338-5.063 1.013s-2.943 1.612-4.106 2.812c-1.162 1.2-2.1 2.607-2.812 4.219-.713 1.613-1.069 3.319-1.069 5.119s.337 3.487 1.012 5.062 1.613 2.944 2.813 4.107c1.2 1.162 2.606 2.1 4.219 2.812 1.612.713 3.318 1.069 5.118 1.069s3.488-.338 5.063-1.013 2.944-1.612 4.106-2.812c1.163-1.2 2.1-2.588 2.813-4.163.712-1.575 1.069-3.225 1.069-4.95zm-25.651 57.488h-20.362v-86.513h20.362v6.413c4.35-5.475 10.276-8.213 17.776-8.213 4.125 0 7.968.807 11.531 2.419 3.562 1.613 6.656 3.806 9.281 6.581s4.669 6.038 6.131 9.788c1.463 3.75 2.194 7.762 2.194 12.037s-.731 8.25-2.194 11.925c-1.462 3.675-3.487 6.9-6.075 9.675-2.587 2.775-5.644 4.95-9.169 6.525s-7.35 2.363-11.475 2.363c-7.2 0-13.2-2.475-18-7.425z"/><path d="m857.89 280.762c-.675-2.85-2.063-5.137-4.163-6.862s-4.65-2.588-7.65-2.588c-3.15 0-5.718.825-7.706 2.475-1.987 1.65-3.244 3.975-3.769 6.975zm-23.85 11.813c0 8.775 4.125 13.162 12.375 13.162 4.425 0 7.762-1.8 10.012-5.4h19.688c-3.975 13.2-13.913 19.8-29.813 19.8-4.875 0-9.337-.731-13.387-2.193-4.05-1.463-7.519-3.544-10.406-6.244-2.888-2.7-5.119-5.925-6.694-9.675s-2.363-7.95-2.363-12.6c0-4.8.75-9.131 2.25-12.994 1.5-3.862 3.638-7.144 6.413-9.844s6.131-4.781 10.069-6.243c3.937-1.463 8.381-2.194 13.331-2.194 4.875 0 9.262.731 13.162 2.194 3.9 1.462 7.2 3.581 9.9 6.356s4.763 6.169 6.188 10.181c1.425 4.013 2.137 8.531 2.137 13.556v2.138z"/><path d="m912.002 277.275v40.725h-20.362v-40.725h-6.75v-16.988h6.75v-17.325h20.362v17.325h11.588v16.988z"/><path d="m970.052 275.137c-3.75-1.95-7.425-2.925-11.025-2.925-1.875 0-3.393.375-4.556 1.125-1.162.75-1.744 1.763-1.744 3.038 0 .675.094 1.219.282 1.631.187.413.6.806 1.237 1.181.638.375 1.575.713 2.813 1.013 1.237.3 2.868.675 4.893 1.125 5.625 1.125 9.825 3.131 12.6 6.019 2.775 2.887 4.163 6.581 4.163 11.081 0 3.375-.675 6.412-2.025 9.112s-3.225 4.969-5.625 6.807c-2.4 1.837-5.288 3.262-8.663 4.275-3.375 1.012-7.087 1.518-11.137 1.518-7.8 0-15.488-2.212-23.063-6.637l7.425-14.4c5.7 3.9 11.1 5.85 16.2 5.85 1.875 0 3.413-.413 4.613-1.238s1.8-1.875 1.8-3.15c0-.75-.094-1.368-.281-1.856-.188-.487-.582-.937-1.182-1.35-.6-.412-1.481-.787-2.643-1.125-1.163-.337-2.682-.694-4.557-1.069-6.3-1.275-10.706-3.168-13.218-5.681-2.513-2.512-3.769-5.981-3.769-10.406 0-3.225.6-6.131 1.8-8.719 1.2-2.587 2.925-4.781 5.175-6.581s4.969-3.188 8.156-4.163c3.188-.975 6.731-1.462 10.631-1.462 6.375 0 12.563 1.237 18.563 3.712z"/><path d="m427.184 442.254c0-6.3 1.162-12.169 3.487-17.606 2.325-5.438 5.55-10.181 9.675-14.231s9.056-7.219 14.794-9.507c5.737-2.287 12.056-3.431 18.956-3.431 6.825 0 13.125 1.144 18.9 3.431 5.775 2.288 10.744 5.457 14.906 9.507 4.163 4.05 7.407 8.793 9.732 14.231 2.325 5.437 3.487 11.306 3.487 17.606 0 5.85-.956 11.288-2.869 16.313-1.912 5.025-4.668 9.487-8.268 13.387l14.4 15.075-20.25 3.15-7.763-7.987c-3.3 1.5-6.806 2.681-10.519 3.543-3.712.863-7.631 1.294-11.756 1.294-6.9 0-13.219-1.144-18.956-3.431-5.738-2.288-10.669-5.456-14.794-9.506s-7.35-8.794-9.675-14.232c-2.325-5.437-3.487-11.306-3.487-17.606zm23.062 0c0 3.375.638 6.488 1.913 9.338s3 5.325 5.175 7.425 4.706 3.731 7.593 4.893c2.888 1.163 5.944 1.744 9.169 1.744 1.95 0 3.9-.225 5.85-.675l-12.6-13.275 20.813-2.587 5.85 6.187c2.7-3.75 4.05-8.1 4.05-13.05 0-3.375-.638-6.487-1.913-9.337s-3.019-5.325-5.231-7.425c-2.213-2.1-4.763-3.732-7.65-4.894-2.888-1.163-5.944-1.744-9.169-1.744s-6.281.581-9.169 1.744c-2.887 1.162-5.418 2.794-7.593 4.894s-3.9 4.575-5.175 7.425-1.913 5.962-1.913 9.337z"/><path d="m553.521 426.954v32.513c0 7.125 3.45 10.687 10.35 10.687s10.35-3.562 10.35-10.687v-32.513h20.363v36.45c0 7.8-2.569 13.65-7.707 17.55-5.137 3.9-12.806 5.85-23.006 5.85s-17.869-1.95-23.006-5.85-7.706-9.75-7.706-17.55v-36.45z"/><path d="m628.784 426.954v57.713h-20.363v-57.713zm-21.713-22.162c0-1.575.3-3.057.9-4.444.6-1.388 1.425-2.606 2.475-3.656s2.269-1.875 3.657-2.475c1.387-.6 2.868-.9 4.443-.9s3.057.3 4.444.9 2.606 1.425 3.656 2.475 1.875 2.268 2.475 3.656c.6 1.387.9 2.869.9 4.444s-.3 3.056-.9 4.443c-.6 1.388-1.425 2.607-2.475 3.657s-2.269 1.875-3.656 2.475-2.869.9-4.444.9-3.056-.3-4.443-.9c-1.388-.6-2.607-1.425-3.657-2.475s-1.875-2.269-2.475-3.657c-.6-1.387-.9-2.868-.9-4.443z"/><path d="m686.271 445.629c-3.525-2.4-7.087-3.6-10.687-3.6-1.95 0-3.769.338-5.457 1.013-1.687.675-3.168 1.631-4.443 2.868-1.275 1.238-2.269 2.7-2.981 4.388-.713 1.687-1.069 3.581-1.069 5.681 0 2.025.356 3.881 1.069 5.569.712 1.687 1.687 3.15 2.924 4.387 1.238 1.238 2.719 2.194 4.444 2.869s3.563 1.013 5.513 1.013c3.825 0 7.387-1.313 10.687-3.938v17.325c-5.025 2.175-9.787 3.263-14.287 3.263-4.2 0-8.194-.713-11.982-2.138-3.787-1.425-7.125-3.469-10.012-6.131-2.887-2.663-5.194-5.85-6.919-9.563-1.725-3.712-2.587-7.856-2.587-12.431s.825-8.756 2.475-12.544c1.65-3.787 3.9-7.05 6.75-9.787 2.85-2.738 6.244-4.875 10.181-6.413 3.938-1.537 8.156-2.306 12.656-2.306 4.95 0 9.525 1.05 13.725 3.15z"/><path d="m721.034 391.292v56.475l21.375-20.813h27.9l-28.913 26.663 30.6 31.05h-28.575l-22.387-23.513v23.513h-20.363v-93.375z"/><path d="m781.109 484.667v-84.825h22.05l40.725 51.862v-51.862h21.937v84.825h-21.937l-40.725-51.863v51.863z"/><path d="m901.821 455.642c0 1.875.338 3.618 1.013 5.231.675 1.612 1.594 3.019 2.756 4.219s2.55 2.137 4.162 2.812c1.613.675 3.357 1.013 5.232 1.013 1.8 0 3.506-.338 5.119-1.013 1.612-.675 3-1.612 4.162-2.812 1.163-1.2 2.1-2.588 2.813-4.163.712-1.575 1.068-3.262 1.068-5.062s-.356-3.507-1.068-5.119c-.713-1.613-1.65-3.019-2.813-4.219-1.162-1.2-2.55-2.137-4.162-2.812-1.613-.675-3.319-1.013-5.119-1.013-1.875 0-3.619.338-5.232 1.013-1.612.675-3 1.612-4.162 2.812s-2.081 2.569-2.756 4.106c-.675 1.538-1.013 3.207-1.013 5.007zm25.65-28.688h20.475v57.713h-20.475v-6.413c-4.35 5.475-10.237 8.213-17.662 8.213-4.2 0-8.063-.769-11.588-2.307-3.525-1.537-6.6-3.693-9.225-6.468s-4.668-6.038-6.131-9.788-2.194-7.837-2.194-12.262c0-4.125.713-8.044 2.138-11.757 1.425-3.712 3.412-6.956 5.962-9.731s5.588-4.969 9.113-6.581c3.525-1.613 7.425-2.419 11.7-2.419 7.2 0 13.162 2.513 17.887 7.538z"/><path d="m978.884 426.954 13.725 29.588 13.951-29.588h22.72l-30.034 57.713h-13.612l-29.7-57.713z"/></g></g></svg>